<?xml version="1.0" encoding="UTF-8"?>
<svg id="Layer_1" data-name="Layer 1" xmlns="http://www.w3.org/2000/svg" xmlns:xlink="http://www.w3.org/1999/xlink" viewBox="0 0 401 79">
  <defs>
    <style>
      .cls-1 {
        letter-spacing: -.1em;
      }

      .cls-2 {
        fill: #939580;
        font-family: MJVIPDaytonica-Regular, 'MJ VIP Daytonica';
        font-size: 37.52px;
      }

      .cls-3 {
        fill: #d4b0a5;
      }

      .cls-4 {
        fill: none;
      }

      .cls-5 {
        clip-path: url(#clippath-1);
      }

      .cls-6 {
        letter-spacing: -.26em;
      }

      .cls-7 {
        letter-spacing: -.1em;
      }

      .cls-8 {
        clip-path: url(#clippath);
      }
    </style>
    <clipPath id="clippath">
      <rect class="cls-4" x="9.87" y="21.65" width="76" height="41"/>
    </clipPath>
    <clipPath id="clippath-1">
      <rect class="cls-4" x="315.02" y="26.68" width="76" height="41"/>
    </clipPath>
  </defs>
  <g class="cls-8">
    <g>
      <path class="cls-3" d="M77.56,45.35c1.21-1.74,1.27-4.24.09-6.08-1.16-1.87-3.37-2.91-5.54-2.92-2.19-.04-4.35,1-5.72,2.71-1.34,1.72-1.95,3.94-1.77,6.08.17,2.15,1.14,4.23,2.71,5.71,1.58,1.48,3.63,2.34,5.73,2.65,1.05.15,2.13.11,3.18-.03,1.05-.15,2.07-.49,3.02-.94.96-.45,1.82-1.07,2.61-1.76.78-.71,1.43-1.54,1.99-2.42.04-.07.03-.16-.04-.21-.07-.04-.16-.03-.2.04h0c-.58.84-1.23,1.62-2,2.28-.78.64-1.63,1.2-2.56,1.59-.93.38-1.89.68-2.89.81-.99.11-2,.12-2.99-.03-1.96-.32-3.86-1.2-5.28-2.55-1.42-1.37-2.29-3.26-2.44-5.22-.15-1.95.43-3.96,1.62-5.5,1.19-1.52,3.1-2.48,5.05-2.46,1.92,0,3.96.83,5.04,2.47.54.81.86,1.77.9,2.76.05.99-.22,1.98-.71,2.86-.03.06-.01.14.05.18.05.05.13.03.17-.02Z"/>
      <path class="cls-3" d="M71.73,52.87s-.07-.16-.15-.21c-.1-.04-.07-.03-.11-.04l-.14-.05-.28-.11c-.19-.07-.38-.16-.56-.24-.37-.17-.74-.34-1.1-.54-.73-.38-1.42-.82-2.09-1.29-1.33-.95-2.53-2.07-3.49-3.38-.95-1.31-1.68-2.77-2.06-4.34-.39-1.58-.54-3.21-.63-4.86-.12-1.64-.17-3.35-.75-5-.29-.82-.72-1.59-1.29-2.26-.56-.67-1.24-1.22-1.96-1.68-1.45-.91-3.04-1.51-4.65-1.99-1.61-.47-3.25-.81-4.89-1.1h0l-.05.37c.74.17,1.42.72,1.92,1.34.51.63.87,1.37,1.16,2.14.57,1.54.79,3.22.85,4.89.06.84.02,1.66.06,2.53.04.87,0,1.75.19,2.62.19,1.75.8,3.45,1.65,5.01.83,1.58,2.09,2.89,3.47,3.98.36.25.69.56,1.07.77l1.13.68c.79.37,1.56.79,2.39,1.06,1.62.63,3.31,1.05,5.01,1.34l1.28.2,1.28.14.64.07c.24.01.49.03.74.03.51,0,.97-.06,1.38-.06ZM71.37,52.81c-.44-.07-.83-.21-1.17-.3-.17-.04-.35-.06-.53-.09l-.63-.1-1.25-.2-1.24-.26c-1.65-.37-3.29-.81-4.83-1.48-1.54-.64-3.02-1.44-4.3-2.5l-.49-.38-.44-.43-.44-.43c-.15-.14-.29-.29-.41-.45l-.76-.96c-.22-.34-.42-.7-.63-1.05-.23-.34-.37-.73-.53-1.1-.15-.38-.35-.74-.44-1.15l-.34-1.18c-.09-.4-.14-.81-.21-1.22-.17-.81-.14-1.64-.21-2.47-.05-.84-.03-1.72-.11-2.58-.14-1.72-.44-3.47-1.12-5.1-.34-.82-.81-1.59-1.41-2.25-.61-.65-1.37-1.21-2.33-1.33-.1-.01-.2.06-.21.16-.01.1.06.19.16.21h0c1.62.35,3.23.75,4.79,1.27,1.56.5,3.1,1.13,4.45,2.01.66.45,1.28.97,1.78,1.57.5.6.89,1.3,1.15,2.04.52,1.5.57,3.16.68,4.81.11,1.65.27,3.34.69,4.98.42,1.65,1.19,3.22,2.23,4.56,1.03,1.35,2.31,2.49,3.71,3.43.71.45,1.43.88,2.2,1.24.37.19.76.35,1.15.51.19.07.39.15.59.22l.3.1.15.05s.08.03.03,0c-.04-.04-.04-.14,0-.17Z"/>
      <path class="cls-3" d="M61.78,50.47c-1.19-.41-2.38-1.04-3.47-1.76-1.1-.71-2.13-1.53-3.09-2.43-1.88-1.82-3.51-3.92-4.75-6.24-.62-1.15-1.16-2.35-1.6-3.59-.44-1.25-.81-2.52-1.19-3.81-.38-1.29-.78-2.6-1.33-3.88-.55-1.27-1.27-2.52-2.25-3.53-.97-1.02-2.11-1.87-3.35-2.5-1.21-.68-2.64-1.09-4.07-1.08-1.43,0-2.84.47-4.02,1.25-1.17.79-2.12,1.93-2.63,3.26-.52,1.32-.52,2.88.14,4.17.32.64.78,1.21,1.32,1.66.53.44,1.13.87,1.83,1.07,1.38.45,2.99.08,4-.98.5-.52.84-1.27.74-2.02-.08-.76-.57-1.38-1.11-1.83-.09-.08-.24-.06-.32.03-.08.09-.06.23.03.31h0c.48.42.86.95.92,1.54.06.59-.2,1.18-.63,1.62-.87.89-2.28,1.21-3.46.79-.6-.17-1.12-.56-1.61-.97-.48-.42-.88-.93-1.15-1.49-.56-1.13-.54-2.48-.07-3.65.47-1.18,1.34-2.19,2.41-2.89,1.07-.69,2.34-1.08,3.61-1.05,1.27.01,2.52.39,3.63,1.06,1.15.62,2.17,1.43,3.04,2.38,1.75,1.91,2.49,4.49,3.2,7.06.34,1.3.73,2.61,1.17,3.9.45,1.3,1,2.56,1.65,3.78,1.31,2.42,3.03,4.62,5.06,6.5,2.08,1.82,4.41,3.37,7.14,4.16.22.06.46-.06.52-.29.06-.22-.06-.44-.27-.52l-.04-.02Z"/>
      <path class="cls-3" d="M85.38,42.59c-.52,2.97-1.86,5.85-3.81,8.15-1.95,2.31-4.54,4.03-7.39,4.98-1.43.48-2.91.82-4.42.98-.37.06-.75.08-1.13.11-.38.02-.75.06-1.13.08-.76,0-1.52.05-2.28,0-3.05-.1-6.09-.53-9-1.42-2.91-.87-5.68-2.17-8.31-3.72-2.62-1.57-5.08-3.42-7.53-5.32-2.45-1.89-4.91-3.85-7.7-5.39-1.39-.77-2.87-1.41-4.43-1.84-.38-.11-.79-.18-1.18-.27-.39-.08-.8-.12-1.2-.18-.4-.04-.8-.06-1.2-.09l-1.21-.02c-3.24.06-6.44,1.27-8.91,3.35-2.47,2.08-4.16,5.07-4.58,8.27-.48,3.19.54,6.6,2.77,8.94,2.19,2.37,5.46,3.71,8.69,3.4.4-.02.8-.13,1.19-.2.38-.12.78-.21,1.15-.38.75-.29,1.45-.71,2.09-1.2,1.28-.98,2.26-2.33,2.81-3.84.27-.75.43-1.54.5-2.34.06-.8-.02-1.62-.24-2.39-.43-1.55-1.43-2.94-2.77-3.83-1.33-.9-2.97-1.35-4.59-1.14-1.6.23-3.08,1.2-3.92,2.57-.42.68-.69,1.46-.78,2.26-.11.8,0,1.63.34,2.37.64,1.48,2.16,2.54,3.77,2.63.08,0,.16-.06.16-.14,0-.08-.06-.15-.14-.16-1.5-.1-2.89-1.09-3.47-2.47-.29-.68-.39-1.44-.29-2.18.09-.74.35-1.46.75-2.09.8-1.26,2.17-2.14,3.64-2.33,1.47-.18,3.02.25,4.24,1.1,1.23.84,2.15,2.13,2.53,3.57.19.72.26,1.46.2,2.2-.07.74-.22,1.48-.49,2.18-.53,1.39-1.45,2.64-2.65,3.53-.59.45-1.24.83-1.94,1.09-.34.15-.7.23-1.06.34-.36.06-.73.15-1.1.16-1.47.12-3.01-.14-4.38-.71-1.38-.57-2.62-1.45-3.62-2.56-2.03-2.21-2.92-5.33-2.44-8.26.43-2.94,2.03-5.67,4.33-7.56,2.3-1.89,5.25-2.95,8.22-2.97l1.12.03c.37.03.75.05,1.12.09.36.06.73.1,1.1.18.36.09.73.15,1.08.26,1.43.41,2.81,1.03,4.13,1.77,2.63,1.5,5.05,3.43,7.49,5.32,2.45,1.91,4.95,3.8,7.65,5.43,2.7,1.62,5.59,2.97,8.65,3.84,3.04.9,6.2,1.32,9.36,1.4,3.15.08,6.37-.3,9.37-1.41,3-1.09,5.74-2.97,7.7-5.49,1.95-2.52,3.23-5.51,3.61-8.65.01-.13-.08-.25-.21-.27-.13-.01-.24.07-.27.2v.03Z"/>
      <path class="cls-3" d="M80.07,52.35c-.29.15-.57.2-.78.32-.2.12-.5.29-.77.44-.54.32-1.11.58-1.68.85-1.15.49-2.33.93-3.55,1.21-2.43.61-4.96.82-7.46.66-5-.33-9.92-1.94-14.22-4.44-2.15-1.28-4.12-2.84-5.97-4.53-1.87-1.68-3.66-3.46-5.6-5.12-1.93-1.65-4.04-3.18-6.43-4.19-2.38-1.02-5.01-1.45-7.59-1.41l.17.93c1.14-.37,2.37-.64,3.59-.8,1.22-.15,2.47-.25,3.7-.18,1.24.02,2.46.23,3.66.49.59.18,1.18.34,1.76.55l.85.36c.28.12.57.23.83.39l.8.46c.27.15.53.3.77.5l.74.55c.25.18.5.36.71.59.44.43.89.84,1.32,1.3l1.29,1.39c1.74,1.83,3.53,3.63,5.47,5.28,1.94,1.64,4.04,3.14,6.37,4.19,1.15.55,2.37.95,3.6,1.31,1.23.32,2.48.6,3.73.79,1.25.2,2.51.36,3.79.45,1.27.06,2.55.01,3.82-.13,1.26-.14,2.52-.4,3.74-.75.61-.18,1.22-.37,1.81-.61.3-.11.59-.23.88-.36.14-.06.29-.13.43-.2l.21-.1.11-.05s.06-.03.02-.01c-.05.01-.15-.06-.14-.11ZM80.36,52.17s-.16-.08-.24-.04l-.08.03-.1.05-.21.1-.43.19c-.29.12-.58.24-.87.34-.58.22-1.18.4-1.79.58-1.21.33-2.44.57-3.69.7-1.24.13-2.5.16-3.75.08-1.24-.1-2.49-.27-3.73-.48-1.24-.19-2.46-.48-3.67-.81-1.19-.36-2.38-.76-3.5-1.32-2.27-1.05-4.3-2.53-6.19-4.17-1.89-1.64-3.65-3.44-5.36-5.28l-1.27-1.4c-.43-.46-.91-.91-1.36-1.37-.22-.24-.48-.43-.74-.62l-.77-.59c-.25-.21-.53-.37-.81-.53l-.84-.49c-.27-.18-.58-.29-.87-.42l-.89-.39c-.6-.23-1.23-.4-1.85-.6-1.26-.29-2.54-.52-3.83-.56-1.29-.08-2.58,0-3.86.15-1.28.16-2.53.41-3.8.81h0c-.25.08-.38.35-.29.6.07.2.26.32.46.32h.01c2.47-.06,4.94.31,7.22,1.26,2.28.93,4.34,2.38,6.25,3.99,3.83,3.24,7.3,7.07,11.77,9.62,4.44,2.52,9.42,4.08,14.53,4.37,2.55.14,5.12-.1,7.59-.74,1.24-.3,2.44-.76,3.61-1.27.57-.28,1.15-.55,1.7-.88.28-.17.54-.29.86-.53.32-.23.56-.53.8-.72Z"/>
      <path class="cls-3" d="M65.93,47.48c-.62-1.31-.24-2.97.87-3.87.54-.46,1.23-.73,1.93-.68.69.04,1.36.39,1.8.93.44.54.64,1.25.44,1.91-.18.66-.74,1.21-1.4,1.36-.66.15-1.4-.19-1.72-.8-.35-.58-.11-1.44.53-1.74.05-.02.07-.08.04-.13-.02-.04-.08-.07-.12-.05h0c-.75.31-1.11,1.32-.7,2.05.36.73,1.23,1.16,2.04.98.8-.17,1.45-.8,1.68-1.57.25-.77.03-1.66-.49-2.26-.5-.62-1.27-1-2.07-1.05-.8-.06-1.59.27-2.17.78-.6.5-1.01,1.21-1.17,1.97-.16.76-.03,1.56.3,2.26.03.06.1.08.15.05.05-.03.08-.1.05-.15Z"/>
      <path class="cls-3" d="M66.25,49.9l.14.15.03.04s-.01-.02-.01-.03l-.06-.08c-.08-.11-.16-.22-.24-.33-.15-.22-.3-.45-.44-.69-.27-.47-.51-.97-.72-1.47-.4-1.01-.65-2.08-.71-3.16-.07-1.08.06-2.16.36-3.19.29-1.04.77-2,1.3-2.95,1.05-1.91,2.37-3.64,3.55-5.54.29-.48.57-.97.79-1.52.21-.54.39-1.16.32-1.84-.04-.34-.16-.67-.34-.97-.18-.29-.4-.54-.65-.74-.47-.4-1.06-.72-1.74-.8-.68-.08-1.37.12-1.89.46-.54.33-.95.77-1.32,1.22-.73.91-1.25,1.92-1.7,2.94-.44,1.02-.8,2.1-1,3.2-.21,1.1-.32,2.21-.36,3.32-.02,1.11.06,2.22.22,3.32.2,1.09.44,2.18.86,3.2.78,2.07,2.03,3.96,3.62,5.48h.02ZM66.26,49.89c-1.53-1.58-2.68-3.49-3.38-5.55-.37-1.02-.57-2.1-.72-3.17-.12-1.08-.15-2.16-.09-3.24.15-2.16.59-4.29,1.55-6.22.46-.97,1-1.9,1.68-2.69.66-.78,1.54-1.38,2.38-1.23.41.07.83.29,1.2.59.37.28.61.62.68,1.03.07.41-.02.9-.19,1.37-.17.48-.41.96-.67,1.42-1.06,1.88-2.33,3.71-3.31,5.7-.49.98-.96,2.02-1.21,3.11-.26,1.09-.34,2.22-.23,3.32.11,1.11.41,2.19.87,3.19.22.5.49.99.79,1.45.15.23.3.46.47.68.08.11.17.21.26.32l.07.08s.03.04.04.02l-.04-.03-.14-.14h0Z"/>
      <path class="cls-3" d="M82.36,50.54c-1.99,2.69-4.51,4.98-7.43,6.58-2.9,1.63-6.17,2.57-9.48,2.8-1.65.12-3.32.07-4.97-.1-1.65-.18-3.28-.52-4.88-.96-1.6-.43-3.16-1.02-4.7-1.65-1.52-.67-3.02-1.39-4.47-2.22-2.92-1.6-5.64-3.53-8.28-5.58-2.66-2.04-5.46-3.95-8.51-5.4-3.03-1.43-6.36-2.5-9.77-2.32-.84.07-1.69.19-2.5.43-.81.24-1.6.57-2.33,1-1.44.84-2.7,2.05-3.5,3.52.42-.72.97-1.36,1.58-1.93.61-.57,1.28-1.06,2.01-1.45.73-.4,1.51-.7,2.31-.91.8-.21,1.63-.31,2.45-.35,3.33-.1,6.57.99,9.54,2.45,2.97,1.49,5.74,3.37,8.37,5.42,2.63,2.07,5.37,4.05,8.32,5.68,1.46.83,2.99,1.55,4.54,2.22,1.56.63,3.15,1.23,4.78,1.65,3.25.88,6.66,1.31,10.04.99,3.37-.29,6.68-1.3,9.59-3.01,2.9-1.72,5.4-4.08,7.27-6.86Z"/>
      <path class="cls-3" d="M47.23,25.97c0,.14.1.27.25.29.3.04,7.52,1.07,8.71,9.06,1.34,8.99,2.22,14.93,14.26,17.78.15.03.31-.06.35-.21.03-.15-.06-.31-.21-.35-11.65-2.76-12.51-8.54-13.82-17.3-1.25-8.44-9.14-9.54-9.21-9.56-.16-.02-.3.09-.32.25,0,.02,0,.03,0,.04Z"/>
    </g>
  </g>
  <g class="cls-5">
    <g>
      <path class="cls-3" d="M323.34,43.98c-1.21,1.74-1.27,4.24-.09,6.08,1.16,1.87,3.37,2.91,5.54,2.92,2.19.04,4.35-1,5.72-2.71,1.34-1.72,1.95-3.94,1.77-6.08-.17-2.15-1.14-4.23-2.71-5.71-1.58-1.48-3.63-2.34-5.73-2.65-1.05-.15-2.13-.11-3.18.03-1.05.15-2.07.49-3.02.94-.96.45-1.82,1.07-2.61,1.76-.78.71-1.43,1.54-1.99,2.42-.05.07-.02.16.05.21.07.04.16.02.2-.04h0c.58-.84,1.23-1.62,2-2.28.78-.64,1.63-1.2,2.56-1.59.93-.38,1.89-.68,2.89-.81.99-.11,2-.12,2.99.03,1.96.32,3.86,1.2,5.29,2.55,1.42,1.37,2.29,3.26,2.44,5.22.15,1.95-.43,3.96-1.62,5.5-1.19,1.52-3.1,2.48-5.05,2.46-1.92,0-3.96-.83-5.04-2.47-.54-.81-.86-1.77-.9-2.76-.04-.99.22-1.98.71-2.86.03-.06.01-.14-.05-.18-.05-.05-.13-.03-.17.02Z"/>
      <path class="cls-3" d="M329.16,36.46s.07.16.15.21c.1.04.08.03.12.04l.14.05.28.11c.19.07.38.16.57.24.37.17.74.34,1.1.54.73.38,1.42.82,2.09,1.29,1.33.95,2.53,2.07,3.49,3.38.95,1.31,1.68,2.77,2.06,4.34.39,1.58.54,3.21.64,4.86.12,1.64.17,3.35.75,5,.29.82.72,1.59,1.29,2.26.56.67,1.24,1.22,1.96,1.68,1.45.91,3.04,1.51,4.65,1.99,1.61.47,3.25.81,4.88,1.1h0l.05-.37c-.74-.17-1.42-.72-1.92-1.34-.51-.63-.87-1.37-1.16-2.14-.57-1.54-.79-3.22-.85-4.89-.06-.84-.02-1.66-.05-2.53-.04-.87-.01-1.75-.19-2.62-.19-1.75-.8-3.45-1.65-5.01-.83-1.58-2.09-2.89-3.47-3.98-.36-.25-.69-.56-1.07-.77l-1.13-.68c-.79-.37-1.56-.79-2.39-1.06-1.62-.63-3.31-1.05-5.01-1.34l-1.28-.2-1.28-.14-.64-.07c-.24-.01-.49-.03-.74-.03-.51,0-.97.06-1.38.06ZM329.52,36.52c.44.07.83.21,1.17.3.17.04.35.06.53.09l.63.1,1.25.2,1.24.26c1.65.37,3.29.81,4.83,1.48,1.54.64,3.02,1.44,4.3,2.5l.49.38.44.43.44.43c.15.14.29.29.41.45l.76.96c.22.34.42.7.64,1.05.23.34.37.73.53,1.1.15.38.35.74.44,1.15l.34,1.18c.1.4.14.81.21,1.22.17.81.14,1.64.21,2.47.05.84.03,1.72.11,2.58.14,1.72.44,3.47,1.12,5.1.34.82.81,1.59,1.41,2.25.61.65,1.37,1.21,2.33,1.33.11.01.2-.06.21-.16.01-.1-.06-.19-.16-.21h0c-1.62-.35-3.23-.75-4.79-1.27-1.56-.5-3.1-1.13-4.45-2.01-.66-.45-1.28-.97-1.78-1.57-.5-.6-.89-1.3-1.15-2.04-.52-1.5-.57-3.16-.68-4.81-.11-1.65-.27-3.34-.7-4.98-.42-1.65-1.19-3.22-2.23-4.56-1.03-1.35-2.31-2.49-3.71-3.43-.71-.45-1.43-.88-2.2-1.24-.37-.19-.76-.35-1.15-.51-.2-.07-.39-.15-.59-.22l-.3-.1-.15-.05s-.08-.03-.04,0c.04.04.05.14,0,.17Z"/>
      <path class="cls-3" d="M339.11,38.86c1.19.41,2.38,1.04,3.47,1.76,1.1.71,2.13,1.53,3.09,2.43,1.88,1.82,3.51,3.92,4.75,6.24.62,1.15,1.16,2.35,1.6,3.59.44,1.25.81,2.52,1.19,3.81.39,1.29.78,2.6,1.33,3.88.55,1.27,1.27,2.52,2.25,3.53.97,1.02,2.11,1.87,3.35,2.5,1.21.68,2.64,1.09,4.07,1.08,1.43,0,2.84-.47,4.02-1.25,1.17-.79,2.12-1.93,2.63-3.26.52-1.32.52-2.88-.14-4.17-.32-.64-.78-1.21-1.32-1.66-.53-.44-1.13-.87-1.83-1.07-1.38-.45-2.99-.08-4,.98-.5.52-.84,1.27-.74,2.02.08.76.57,1.38,1.11,1.83.1.08.24.06.32-.03.08-.09.07-.23-.02-.31h0c-.48-.42-.87-.95-.92-1.54-.07-.59.2-1.18.64-1.62.87-.89,2.28-1.21,3.46-.79.6.17,1.12.56,1.61.97.48.42.88.93,1.15,1.49.56,1.13.54,2.48.07,3.65-.47,1.18-1.34,2.19-2.41,2.89-1.07.69-2.34,1.08-3.61,1.05-1.27-.01-2.52-.39-3.63-1.06-1.15-.62-2.17-1.43-3.04-2.38-1.75-1.91-2.49-4.49-3.2-7.06-.34-1.3-.73-2.61-1.17-3.9-.45-1.3-1-2.56-1.65-3.78-1.31-2.42-3.03-4.62-5.06-6.5-2.08-1.82-4.41-3.37-7.14-4.16-.22-.06-.46.06-.52.29-.07.22.05.44.27.52l.05.02Z"/>
      <path class="cls-3" d="M315.51,46.74c.52-2.97,1.86-5.85,3.81-8.15,1.95-2.31,4.54-4.03,7.39-4.98,1.43-.48,2.91-.82,4.42-.98.38-.06.75-.08,1.13-.11.38-.02.75-.06,1.13-.08.76,0,1.52-.05,2.28,0,3.05.1,6.09.53,9,1.42,2.91.87,5.68,2.17,8.31,3.72,2.62,1.57,5.08,3.42,7.53,5.32,2.45,1.89,4.91,3.85,7.7,5.39,1.39.77,2.87,1.42,4.43,1.84.39.11.79.18,1.18.27.4.08.8.12,1.2.18.4.04.8.06,1.2.09l1.21.02c3.24-.06,6.44-1.27,8.91-3.35,2.47-2.08,4.16-5.07,4.58-8.27.48-3.19-.54-6.6-2.77-8.94-2.19-2.37-5.46-3.71-8.69-3.4-.4.02-.8.13-1.19.2-.39.12-.78.21-1.15.38-.76.29-1.45.71-2.09,1.2-1.28.98-2.26,2.33-2.81,3.84-.27.75-.43,1.54-.51,2.34-.05.8.03,1.62.25,2.39.43,1.55,1.43,2.94,2.77,3.83,1.33.9,2.97,1.35,4.59,1.14,1.6-.23,3.08-1.2,3.92-2.57.42-.68.69-1.46.78-2.26.11-.8-.01-1.63-.34-2.37-.64-1.48-2.16-2.54-3.77-2.63-.08,0-.16.06-.17.14,0,.08.06.15.15.16,1.5.1,2.89,1.09,3.47,2.47.29.68.39,1.44.29,2.18-.1.74-.35,1.46-.75,2.09-.8,1.26-2.17,2.14-3.64,2.33-1.47.18-3.02-.25-4.24-1.1-1.23-.84-2.15-2.13-2.53-3.57-.19-.72-.26-1.46-.2-2.2.07-.74.22-1.48.49-2.18.54-1.39,1.45-2.64,2.65-3.53.6-.45,1.24-.83,1.94-1.09.34-.15.7-.23,1.06-.34.37-.06.73-.15,1.1-.16,1.47-.12,3.01.14,4.38.71,1.38.57,2.62,1.45,3.62,2.56,2.03,2.21,2.92,5.33,2.44,8.26-.43,2.94-2.03,5.67-4.33,7.56-2.3,1.89-5.25,2.95-8.22,2.97l-1.12-.03c-.38-.03-.75-.05-1.12-.09-.36-.06-.73-.1-1.1-.18-.36-.09-.73-.15-1.08-.26-1.43-.41-2.81-1.03-4.13-1.77-2.63-1.5-5.04-3.43-7.49-5.32-2.45-1.91-4.95-3.8-7.65-5.43-2.7-1.62-5.6-2.97-8.65-3.84-3.04-.9-6.2-1.32-9.36-1.4-3.15-.08-6.37.3-9.37,1.4-3,1.09-5.74,2.97-7.7,5.49-1.95,2.52-3.23,5.51-3.61,8.65-.02.13.08.25.21.27.13.01.24-.07.27-.2v-.03Z"/>
      <path class="cls-3" d="M320.82,36.98c.29-.15.57-.2.78-.32.2-.12.51-.29.77-.44.54-.32,1.11-.58,1.68-.85,1.15-.49,2.33-.93,3.55-1.21,2.43-.61,4.95-.82,7.46-.66,4.99.33,9.91,1.94,14.22,4.44,2.15,1.28,4.12,2.84,5.97,4.53,1.87,1.68,3.66,3.46,5.6,5.12,1.93,1.65,4.04,3.18,6.43,4.19,2.38,1.02,5.01,1.45,7.59,1.41l-.17-.93c-1.14.37-2.37.64-3.59.8-1.22.15-2.47.25-3.7.18-1.24-.03-2.46-.23-3.66-.49-.59-.18-1.18-.34-1.76-.55l-.85-.36c-.28-.12-.57-.23-.83-.39l-.8-.46c-.27-.15-.53-.3-.77-.5l-.74-.55c-.25-.18-.5-.36-.71-.59-.44-.43-.89-.84-1.32-1.3l-1.29-1.39c-1.74-1.83-3.53-3.63-5.47-5.28-1.94-1.64-4.04-3.14-6.37-4.19-1.15-.55-2.37-.95-3.6-1.31-1.23-.32-2.48-.6-3.73-.79-1.25-.2-2.51-.36-3.79-.45-1.27-.06-2.55-.01-3.82.13-1.26.14-2.52.4-3.74.75-.61.18-1.22.37-1.81.61-.3.11-.59.23-.88.36-.14.06-.29.13-.43.2l-.21.1-.11.05s-.06.03-.02.01c.05,0,.15.06.15.11ZM320.54,37.16s.16.08.24.04l.08-.03.11-.05.21-.1.43-.19c.29-.12.58-.24.88-.34.58-.22,1.18-.4,1.79-.58,1.21-.33,2.44-.57,3.69-.7,1.24-.13,2.5-.16,3.75-.08,1.24.1,2.49.27,3.73.48,1.24.19,2.46.48,3.67.81,1.19.36,2.38.76,3.5,1.32,2.27,1.05,4.3,2.53,6.19,4.17,1.89,1.64,3.65,3.44,5.36,5.28l1.27,1.4c.43.46.91.91,1.36,1.37.22.24.48.43.74.62l.77.59c.25.21.53.37.81.53l.84.49c.27.18.58.29.87.42l.89.39c.6.23,1.23.4,1.85.6,1.26.29,2.54.52,3.83.56,1.29.08,2.58,0,3.86-.15,1.28-.16,2.53-.41,3.8-.81h0c.25-.08.38-.35.29-.6-.07-.2-.26-.32-.46-.32h-.01c-2.47.06-4.94-.31-7.22-1.26-2.28-.93-4.34-2.38-6.25-3.99-3.83-3.24-7.3-7.07-11.77-9.62-4.44-2.52-9.42-4.08-14.53-4.37-2.55-.14-5.12.1-7.59.74-1.24.3-2.44.76-3.61,1.27-.57.28-1.15.55-1.7.88-.28.17-.54.29-.86.53-.32.23-.57.53-.8.72Z"/>
      <path class="cls-3" d="M334.96,41.85c.62,1.31.24,2.97-.87,3.87-.54.46-1.23.73-1.93.68-.69-.04-1.36-.39-1.8-.93-.44-.54-.64-1.25-.44-1.91.18-.66.74-1.21,1.4-1.36.66-.15,1.4.19,1.72.8.35.58.11,1.43-.53,1.74-.05.02-.07.08-.05.13.03.04.08.07.12.05h0c.75-.31,1.11-1.32.7-2.05-.36-.73-1.23-1.16-2.04-.98-.8.17-1.45.8-1.68,1.57-.26.77-.02,1.66.49,2.26.5.62,1.27,1,2.07,1.05.8.06,1.59-.27,2.17-.78.6-.5,1.01-1.21,1.17-1.97.16-.76.03-1.56-.3-2.26-.03-.06-.1-.08-.15-.05-.05.03-.08.1-.05.15Z"/>
      <path class="cls-3" d="M334.64,39.43l-.14-.15-.03-.04s.01.02.01.03l.07.08c.08.11.17.22.24.33.15.22.3.45.44.69.27.47.52.97.72,1.47.4,1.01.65,2.08.71,3.16.07,1.08-.06,2.16-.36,3.19-.29,1.04-.77,2-1.3,2.95-1.05,1.91-2.37,3.64-3.55,5.54-.29.48-.57.97-.79,1.52-.21.54-.39,1.16-.32,1.84.04.34.16.67.34.97.18.29.4.54.65.74.47.4,1.06.72,1.74.8.68.08,1.37-.12,1.89-.46.54-.33.95-.77,1.32-1.22.73-.91,1.25-1.92,1.7-2.94.44-1.02.81-2.1,1-3.2.21-1.1.32-2.21.36-3.32.02-1.11-.05-2.22-.22-3.32-.2-1.09-.44-2.18-.86-3.2-.78-2.07-2.03-3.96-3.62-5.48h-.02ZM334.63,39.44c1.53,1.58,2.68,3.49,3.38,5.55.37,1.02.57,2.1.73,3.17.12,1.08.15,2.16.09,3.24-.15,2.16-.59,4.29-1.55,6.22-.46.97-1,1.9-1.68,2.69-.67.78-1.54,1.38-2.38,1.23-.41-.07-.83-.29-1.2-.59-.37-.28-.61-.62-.68-1.03-.07-.41.02-.9.2-1.37.17-.48.41-.96.67-1.42,1.06-1.88,2.33-3.71,3.31-5.7.49-.98.96-2.02,1.21-3.11.26-1.09.34-2.22.23-3.32-.11-1.11-.41-2.19-.87-3.19-.23-.5-.49-.99-.79-1.45-.15-.23-.3-.46-.47-.68-.08-.11-.17-.21-.26-.32l-.07-.08s-.02-.04-.04-.02l.04.03.14.14h0Z"/>
      <path class="cls-3" d="M318.53,38.79c1.99-2.69,4.51-4.98,7.43-6.58,2.9-1.63,6.17-2.57,9.48-2.8,1.65-.12,3.32-.07,4.96.1,1.65.18,3.28.52,4.88.96,1.6.43,3.16,1.02,4.7,1.65,1.52.67,3.02,1.39,4.47,2.22,2.92,1.6,5.64,3.53,8.28,5.58,2.66,2.04,5.46,3.95,8.51,5.4,3.03,1.43,6.36,2.5,9.77,2.32.84-.07,1.69-.19,2.5-.43.81-.24,1.6-.57,2.33-1,1.44-.84,2.7-2.05,3.5-3.52-.42.72-.97,1.36-1.58,1.93-.61.57-1.28,1.06-2.01,1.45-.73.4-1.51.7-2.31.91-.8.21-1.63.31-2.45.35-3.33.1-6.57-.99-9.54-2.45-2.97-1.49-5.74-3.37-8.37-5.42-2.63-2.07-5.38-4.05-8.32-5.68-1.46-.83-2.99-1.55-4.54-2.22-1.56-.63-3.15-1.23-4.78-1.65-3.25-.88-6.66-1.31-10.04-.99-3.37.29-6.68,1.3-9.59,3.01-2.9,1.72-5.4,4.08-7.27,6.86Z"/>
      <path class="cls-3" d="M353.67,63.36c0-.14-.11-.27-.26-.29-.3-.04-7.52-1.07-8.71-9.06-1.34-8.99-2.22-14.93-14.26-17.78-.15-.03-.32.06-.35.21-.04.15.06.31.21.35,11.65,2.76,12.51,8.54,13.82,17.3,1.25,8.44,9.14,9.54,9.21,9.56.16.02.3-.09.32-.25,0-.01,0-.03,0-.04Z"/>
    </g>
  </g>
  <text class="cls-2" transform="translate(85.69 58.93) scale(.8 1)"><tspan class="cls-7" x="0" y="0">Ngọc Quân &amp; Thuý</tspan><tspan class="cls-6" x="224.08" y="0"> </tspan><tspan class="cls-1" x="223.48" y="0">Vi</tspan></text>
</svg>